<svg width="28" height="28" viewBox="0 0 28 28" fill="none" xmlns="http://www.w3.org/2000/svg">
<path fill-rule="evenodd" clip-rule="evenodd" d="M8.33366 9.33342C8.88594 9.33342 9.33366 8.8857 9.33366 8.33342V5.66675C9.33366 5.11446 8.88594 4.66675 8.33366 4.66675H5.66699C5.11471 4.66675 4.66699 5.11446 4.66699 5.66675V8.33342C4.66699 8.8857 5.11471 9.33342 5.66699 9.33342H8.33366ZM15.3337 23.3334C15.8859 23.3334 16.3337 22.8857 16.3337 22.3334V19.6667C16.3337 19.1145 15.8859 18.6667 15.3337 18.6667H12.667C12.1147 18.6667 11.667 19.1145 11.667 19.6667V22.3334C11.667 22.8857 12.1147 23.3334 12.667 23.3334H15.3337ZM8.33366 23.3334C8.88594 23.3334 9.33366 22.8857 9.33366 22.3334V19.6667C9.33366 19.1145 8.88594 18.6667 8.33366 18.6667H5.66699C5.11471 18.6667 4.66699 19.1145 4.66699 19.6667V22.3334C4.66699 22.8857 5.11471 23.3334 5.66699 23.3334H8.33366ZM8.33366 16.3334C8.88594 16.3334 9.33366 15.8857 9.33366 15.3334V12.6667C9.33366 12.1145 8.88594 11.6667 8.33366 11.6667H5.66699C5.11471 11.6667 4.66699 12.1145 4.66699 12.6667V15.3334C4.66699 15.8857 5.11471 16.3334 5.66699 16.3334H8.33366ZM15.3337 16.3334C15.8859 16.3334 16.3337 15.8857 16.3337 15.3334V12.6667C16.3337 12.1145 15.8859 11.6667 15.3337 11.6667H12.667C12.1147 11.6667 11.667 12.1145 11.667 12.6667V15.3334C11.667 15.8857 12.1147 16.3334 12.667 16.3334H15.3337ZM18.667 8.33342C18.667 8.8857 19.1147 9.33342 19.667 9.33342H22.3337C22.8859 9.33342 23.3337 8.8857 23.3337 8.33342V5.66675C23.3337 5.11446 22.8859 4.66675 22.3337 4.66675H19.667C19.1147 4.66675 18.667 5.11446 18.667 5.66675V8.33342ZM15.3337 9.33342C15.8859 9.33342 16.3337 8.8857 16.3337 8.33342V5.66675C16.3337 5.11446 15.8859 4.66675 15.3337 4.66675H12.667C12.1147 4.66675 11.667 5.11446 11.667 5.66675V8.33342C11.667 8.8857 12.1147 9.33342 12.667 9.33342H15.3337ZM22.3337 16.3334C22.8859 16.3334 23.3337 15.8857 23.3337 15.3334V12.6667C23.3337 12.1145 22.8859 11.6667 22.3337 11.6667H19.667C19.1147 11.6667 18.667 12.1145 18.667 12.6667V15.3334C18.667 15.8857 19.1147 16.3334 19.667 16.3334H22.3337ZM22.3337 23.3334C22.8859 23.3334 23.3337 22.8857 23.3337 22.3334V19.6667C23.3337 19.1145 22.8859 18.6667 22.3337 18.6667H19.667C19.1147 18.6667 18.667 19.1145 18.667 19.6667V22.3334C18.667 22.8857 19.1147 23.3334 19.667 23.3334H22.3337Z" fill="#525960"/>
<mask id="mask0_1_268" style="mask-type:luminance" maskUnits="userSpaceOnUse" x="4" y="4" width="20" height="20">
<path fill-rule="evenodd" clip-rule="evenodd" d="M8.33366 9.33342C8.88594 9.33342 9.33366 8.8857 9.33366 8.33342V5.66675C9.33366 5.11446 8.88594 4.66675 8.33366 4.66675H5.66699C5.11471 4.66675 4.66699 5.11446 4.66699 5.66675V8.33342C4.66699 8.8857 5.11471 9.33342 5.66699 9.33342H8.33366ZM15.3337 23.3334C15.8859 23.3334 16.3337 22.8857 16.3337 22.3334V19.6667C16.3337 19.1145 15.8859 18.6667 15.3337 18.6667H12.667C12.1147 18.6667 11.667 19.1145 11.667 19.6667V22.3334C11.667 22.8857 12.1147 23.3334 12.667 23.3334H15.3337ZM8.33366 23.3334C8.88594 23.3334 9.33366 22.8857 9.33366 22.3334V19.6667C9.33366 19.1145 8.88594 18.6667 8.33366 18.6667H5.66699C5.11471 18.6667 4.66699 19.1145 4.66699 19.6667V22.3334C4.66699 22.8857 5.11471 23.3334 5.66699 23.3334H8.33366ZM8.33366 16.3334C8.88594 16.3334 9.33366 15.8857 9.33366 15.3334V12.6667C9.33366 12.1145 8.88594 11.6667 8.33366 11.6667H5.66699C5.11471 11.6667 4.66699 12.1145 4.66699 12.6667V15.3334C4.66699 15.8857 5.11471 16.3334 5.66699 16.3334H8.33366ZM15.3337 16.3334C15.8859 16.3334 16.3337 15.8857 16.3337 15.3334V12.6667C16.3337 12.1145 15.8859 11.6667 15.3337 11.6667H12.667C12.1147 11.6667 11.667 12.1145 11.667 12.6667V15.3334C11.667 15.8857 12.1147 16.3334 12.667 16.3334H15.3337ZM18.667 8.33342C18.667 8.8857 19.1147 9.33342 19.667 9.33342H22.3337C22.8859 9.33342 23.3337 8.8857 23.3337 8.33342V5.66675C23.3337 5.11446 22.8859 4.66675 22.3337 4.66675H19.667C19.1147 4.66675 18.667 5.11446 18.667 5.66675V8.33342ZM15.3337 9.33342C15.8859 9.33342 16.3337 8.8857 16.3337 8.33342V5.66675C16.3337 5.11446 15.8859 4.66675 15.3337 4.66675H12.667C12.1147 4.66675 11.667 5.11446 11.667 5.66675V8.33342C11.667 8.8857 12.1147 9.33342 12.667 9.33342H15.3337ZM22.3337 16.3334C22.8859 16.3334 23.3337 15.8857 23.3337 15.3334V12.6667C23.3337 12.1145 22.8859 11.6667 22.3337 11.6667H19.667C19.1147 11.6667 18.667 12.1145 18.667 12.6667V15.3334C18.667 15.8857 19.1147 16.3334 19.667 16.3334H22.3337ZM22.3337 23.3334C22.8859 23.3334 23.3337 22.8857 23.3337 22.3334V19.6667C23.3337 19.1145 22.8859 18.6667 22.3337 18.6667H19.667C19.1147 18.6667 18.667 19.1145 18.667 19.6667V22.3334C18.667 22.8857 19.1147 23.3334 19.667 23.3334H22.3337Z" fill="white"/>
</mask>
<g mask="url(#mask0_1_268)">
</g>
</svg>
