<svg width="24" height="24" viewBox="0 0 24 24" fill="none" xmlns="http://www.w3.org/2000/svg">
<path fill-rule="evenodd" clip-rule="evenodd" d="M4 7C4 7.55 4.4 8 4.88889 8H19.1111C19.6 8 20 7.55 20 7C20 6.45 19.6 6 19.1111 6H4.88889C4.4 6 4 6.45 4 7ZM9.99997 17.9999H14C14.55 17.9999 15 17.5499 15 16.9999C15 16.4499 14.55 15.9999 14 15.9999H9.99997C9.44997 15.9999 8.99997 16.4499 8.99997 16.9999C8.99997 17.5499 9.44997 17.9999 9.99997 17.9999ZM17 13.0001H6.99997C6.44997 13.0001 5.99997 12.5501 5.99997 12.0001C5.99997 11.4501 6.44997 11.0001 6.99997 11.0001H17C17.55 11.0001 18 11.4501 18 12.0001C18 12.5501 17.55 13.0001 17 13.0001Z" fill="#66332B"/>
</svg>
