 <svg
            width="24"
            height="24"
            viewBox="0 0 24 24"
            fill="none"
            xmlns="http://www.w3.org/2000/svg"
          >
            <path
              fillRule="evenodd"
              clipRule="evenodd"
              d="M19.6649 18.0489L15.4627 13.8467C16.1609 12.8341 16.5712 11.6079 16.5712 10.2856C16.5712 6.81366 13.7575 4 10.2856 4C6.81366 4 4 6.81366 4 10.2856C4 13.7575 6.81366 16.5712 10.2856 16.5712C11.6079 16.5712 12.8341 16.1609 13.8467 15.4627L18.0489 19.6649C18.4957 20.1117 19.2192 20.1117 19.6649 19.6649C20.1117 19.2192 20.1117 18.4946 19.6649 18.0489ZM5.71428 10.2859C5.71428 7.76133 7.7611 5.71451 10.2856 5.71451C12.8101 5.71451 14.857 7.76133 14.857 10.2859C14.857 12.8104 12.8101 14.8572 10.2856 14.8572C7.7611 14.8572 5.71428 12.8104 5.71428 10.2859Z"
              fill="#66332B"
            />
          </svg>