<svg width="24" height="25" viewBox="0 0 24 25" fill="none" xmlns="http://www.w3.org/2000/svg">
<path fill-rule="evenodd" clip-rule="evenodd" d="M17.9858 11.3918H5.9858V9.69799C5.9858 9.16257 6.35874 8.72804 6.81828 8.72804H7.70048V9.86854C7.70048 10.342 8.08432 10.7259 8.55782 10.7259C9.03131 10.7259 9.41516 10.342 9.41516 9.86854V8.72804H14.5564V9.86854C14.5564 10.342 14.9403 10.7259 15.4138 10.7259C15.8873 10.7259 16.2711 10.342 16.2711 9.86854V8.72804H17.1285C17.6017 8.72804 17.9858 9.17555 17.9858 9.72696V11.3918ZM17.9858 18.018C17.9858 18.5125 17.6 18.9171 17.1285 18.9171H6.84314C6.36989 18.9171 5.9858 18.5143 5.9858 18.018V13.6228H17.9858V18.018ZM4.0568 18.9268C4.0568 19.9071 4.90788 20.9149 5.88765 20.9149H18.3094C19.29 20.9149 20 20.0083 20 18.9268C20 18.5814 19.9716 9.69144 19.9716 9.11251C19.9716 7.26384 19.7222 6.70799 16.4217 6.70799V5.8196C16.4217 5.32946 16.0244 4.93213 15.5343 4.93213C15.0441 4.93213 14.6468 5.32946 14.6468 5.8196V6.70799H9.32481V5.8196C9.32481 5.32946 8.92748 4.93213 8.43734 4.93213C7.94721 4.93213 7.54988 5.32946 7.54988 5.8196V6.70799H5.77494C4.79872 6.70799 4 7.50713 4 8.48385L4.0568 18.9268Z" fill="#8894A0"/>
</svg>
