<svg width="24" height="24" viewBox="0 0 24 24" fill="none" xmlns="http://www.w3.org/2000/svg">
<path fill-rule="evenodd" clip-rule="evenodd" d="M8.74286 20H16.0571C17.0629 20 17.8857 19.2 17.8857 18.2222V8.55556C17.8857 8.00327 17.438 7.55556 16.8857 7.55556H7.91428C7.362 7.55556 6.91429 8.00327 6.91429 8.55556V18.2222C6.91429 19.2 7.73714 20 8.74286 20ZM16.006 4.88889C15.7456 4.88889 15.4956 4.78736 15.3089 4.60588L14.9768 4.28301C14.7901 4.10153 14.5401 4 14.2797 4H10.5203C10.2599 4 10.0099 4.10153 9.82319 4.283L9.49109 4.60588C9.30443 4.78736 9.05435 4.88889 8.79401 4.88889H6.88889C6.39797 4.88889 6 5.28686 6 5.77778C6 6.2687 6.39797 6.66667 6.88889 6.66667H17.9111C18.402 6.66667 18.8 6.2687 18.8 5.77778C18.8 5.28686 18.402 4.88889 17.9111 4.88889H16.006Z" fill="#66332B"/>
</svg>
