<svg width="24" height="24" viewBox="0 0 24 24" fill="none" xmlns="http://www.w3.org/2000/svg">
<path fill-rule="evenodd" clip-rule="evenodd" d="M12.5072 18.756C12.1954 18.5737 11.8094 18.5737 11.4976 18.756L9.60679 19.8617C9.03519 20.196 8.30239 19.8924 8.13462 19.2519L7.57999 17.1343C7.48843 16.7847 7.21539 16.5117 6.8658 16.4202L4.74743 15.8659C4.10661 15.6981 3.80296 14.965 4.13755 14.3933L5.24291 12.5047C5.42551 12.1927 5.42551 11.8064 5.24291 11.4944L4.13755 9.60579C3.80296 9.0341 4.10661 8.30096 4.74743 8.13326L6.8658 7.57887C7.21539 7.48738 7.48843 7.2144 7.57999 6.86482L8.13462 4.74724C8.30239 4.10667 9.03519 3.8031 9.6068 4.13737L11.4976 5.2431C11.8094 5.42545 12.1954 5.42545 12.5072 5.2431L14.398 4.13737C14.9696 3.8031 15.7024 4.10667 15.8702 4.74724L16.4248 6.86482C16.5164 7.2144 16.7894 7.48738 17.139 7.57887L19.2574 8.13326C19.8982 8.30096 20.2019 9.0341 19.8673 9.60579L18.7619 11.4944C18.5793 11.8064 18.5793 12.1927 18.7619 12.5047L19.8673 14.3933C20.2019 14.965 19.8982 15.6981 19.2574 15.8659L17.139 16.4202C16.7894 16.5117 16.5164 16.7847 16.4248 17.1343L15.8702 19.2519C15.7024 19.8924 14.9696 20.196 14.398 19.8617L12.5072 18.756ZM12.5072 17.1406C12.1954 16.9582 11.8095 16.9582 11.4976 17.1406L10.035 17.9959C9.69203 18.1965 9.25235 18.0143 9.15169 17.63L8.72266 15.992C8.6311 15.6424 8.35806 15.3694 8.00847 15.2779L6.36975 14.8491C5.98526 14.7485 5.80307 14.3086 6.00383 13.9656L6.85889 12.5046C7.04149 12.1926 7.04149 11.8063 6.85889 11.4943L6.00383 10.0334C5.80307 9.69034 5.98526 9.25045 6.36975 9.14983L8.00847 8.72097C8.35806 8.62948 8.6311 8.3565 8.72266 8.00692L9.15169 6.3689C9.25235 5.98456 9.69203 5.80242 10.035 6.00298L11.4976 6.85831C11.8095 7.04067 12.1954 7.04067 12.5072 6.85831L13.9699 6.00298C14.3128 5.80242 14.7525 5.98456 14.8532 6.3689L15.2822 8.00692C15.3737 8.3565 15.6468 8.62948 15.9964 8.72097L17.6351 9.14983C18.0196 9.25045 18.2018 9.69034 18.001 10.0334L17.146 11.4943C16.9634 11.8063 16.9634 12.1926 17.146 12.5046L18.001 13.9656C18.2018 14.3086 18.0196 14.7485 17.6351 14.8491L15.9964 15.2779C15.6468 15.3694 15.3737 15.6424 15.2822 15.992L14.8532 17.63C14.7525 18.0143 14.3128 18.1965 13.9699 17.9959L12.5072 17.1406ZM10.936 9.86761C10.936 10.4563 10.4586 10.9336 9.86964 10.9336C9.28068 10.9336 8.80324 10.4563 8.80324 9.86761C8.80324 9.2789 9.28068 8.80165 9.86964 8.80165C10.4586 8.80165 10.936 9.2789 10.936 9.86761ZM14.1353 15.1973C14.7242 15.1973 15.2017 14.72 15.2017 14.1313C15.2017 13.5426 14.7242 13.0653 14.1353 13.0653C13.5463 13.0653 13.0689 13.5426 13.0689 14.1313C13.0689 14.72 13.5463 15.1973 14.1353 15.1973ZM14.8054 8.98448C14.4722 8.65145 13.9321 8.65145 13.5989 8.98448L8.77294 13.8085C8.43977 14.1415 8.43977 14.6815 8.77294 15.0145C9.1061 15.3475 9.64627 15.3475 9.97943 15.0145L14.8054 10.1905C15.1386 9.85746 15.1386 9.31751 14.8054 8.98448Z" fill="#66332B"/>
</svg>
